# Exported from Wings 3D 1.5.3
mtllib square_textured.mtl
o Cube1
#8 vertices, 6 faces
v -5.00000000 -5.00000000 -5.00000000
v -5.00000000 -5.00000000 5.00000000
v -5.00000000 5.00000000 -5.00000000
v -5.00000000 5.00000000 5.00000000
v 5.00000000 -5.00000000 -5.00000000
v 5.00000000 -5.00000000 5.00000000
v 5.00000000 5.00000000 -5.00000000
v 5.00000000 5.00000000 5.00000000
vt 0.13905556 0.35991111
vt 0.13905556 0.64991111
vt 0.42905556 0.35991111
vt 0.42905556 0.64991111
vn -0.57735027 -0.57735027 -0.57735027
vn -0.57735027 -0.57735027 0.57735027
vn -0.57735027 0.57735027 -0.57735027
vn -0.57735027 0.57735027 0.57735027
vn 0.57735027 -0.57735027 -0.57735027
vn 0.57735027 -0.57735027 0.57735027
vn 0.57735027 0.57735027 -0.57735027
vn 0.57735027 0.57735027 0.57735027
g Cube1_Cube1_auv
usemtl Cube1_auv
s 1
f 5/3/5 7/4/7 8/2/8 6/1/6
g Cube1_default
usemtl default
s 1
f 1//1 5//5 6//6 2//2
f 2//2 4//4 3//3 1//1
f 2//2 6//6 8//8 4//4
f 3//3 7//7 5//5 1//1
f 4//4 8//8 7//7 3//3
