# Exported from Wings 3D 1.5.3
mtllib square.mtl
o Cube1
#8 vertices, 10 faces
v -170.55692527 -170.55692527 -170.55692527
v -170.55692527 -170.55692527 170.55692527
v -170.55692527 170.55692527 -170.55692527
v -170.55692527 170.55692527 170.55692527
v 170.55692527 -170.55692527 -170.55692527
v 170.55692527 -170.55692527 170.55692527
v 170.55692527 170.55692527 -170.55692527
v 170.55692527 170.55692527 170.55692527
vn -0.40824829 -0.40824829 -0.81649658
vn -0.66666667 -0.33333333 0.66666667
vn -0.81649658 0.40824829 -0.40824829
vn -0.57735027 0.57735027 0.57735027
vn 0.81649658 -0.40824829 -0.40824829
vn 0.57735027 -0.57735027 0.57735027
vn 0.40824829 0.40824829 -0.81649658
vn 0.66666667 0.33333333 0.66666667
g Cube1_default
usemtl default
s 1
f 1//1 5//5 6//6 2//2
f 1//1 7//7 5//5
f 2//2 3//3 1//1
f 2//2 8//8 4//4
f 3//3 7//7 1//1
f 4//4 3//3 2//2
f 4//4 8//8 7//7 3//3
f 5//5 8//8 6//6
f 6//6 8//8 2//2
f 7//7 8//8 5//5
